<svg id="visual" viewBox="0 0 1920 639" width="1920" height="639" xmlns="http://www.w3.org/2000/svg" xmlns:xlink="http://www.w3.org/1999/xlink" version="1.1"><rect x="0" y="0" width="1920" height="639" fill="#ffffff"></rect><defs><linearGradient id="grad1_0" x1="66.7%" y1="0%" x2="100%" y2="100%"><stop offset="-10.093896713615017%" stop-color="#ffffff" stop-opacity="1"></stop><stop offset="110.09389671361501%" stop-color="#ffffff" stop-opacity="1"></stop></linearGradient></defs><defs><linearGradient id="grad2_0" x1="0%" y1="0%" x2="33.3%" y2="100%"><stop offset="-10.093896713615017%" stop-color="#ffffff" stop-opacity="1"></stop><stop offset="110.09389671361501%" stop-color="#ffffff" stop-opacity="1"></stop></linearGradient></defs><g transform="translate(1920, 0)"><path d="M0 127.8C-9.1 124.9 -18.3 122 -27.1 118.9C-36 115.9 -44.6 112.7 -51.6 107.2C-58.7 101.7 -64.2 93.9 -69.2 86.8C-74.2 79.6 -78.8 73.1 -84.4 67.3C-90.1 61.5 -96.9 56.5 -104.5 50.3C-112.1 44.2 -120.6 37 -124.6 28.4C-128.6 19.9 -128.2 9.9 -127.8 0L0 0Z" fill="#D6C24F"></path></g><g transform="translate(0, 639)"><path d="M0 -127.8C9.9 -128.2 19.9 -128.7 28.4 -124.6C37 -120.5 44.2 -112 50.3 -104.5C56.4 -97 61.4 -90.7 69.2 -86.8C77 -82.9 87.6 -81.5 96.2 -76.7C104.8 -71.9 111.4 -63.8 113.5 -54.7C115.7 -45.6 113.4 -35.5 115 -26.3C116.7 -17 122.2 -8.5 127.8 0L0 0Z" fill="#D6C24F"></path></g></svg>