<svg id="visual" viewBox="0 0 1920 250" width="1920" height="250" xmlns="http://www.w3.org/2000/svg" xmlns:xlink="http://www.w3.org/1999/xlink" version="1.1"><rect x="0" y="0" width="1920" height="250" fill="#8378FF"></rect><path d="M0 42L45.7 46.5C91.3 51 182.7 60 274.2 67C365.7 74 457.3 79 548.8 79.7C640.3 80.3 731.7 76.7 823 75.7C914.3 74.7 1005.7 76.3 1097 71.7C1188.3 67 1279.7 56 1371.2 59C1462.7 62 1554.3 79 1645.8 89.2C1737.3 99.3 1828.7 102.7 1874.3 104.3L1920 106L1920 251L1874.3 251C1828.7 251 1737.3 251 1645.8 251C1554.3 251 1462.7 251 1371.2 251C1279.7 251 1188.3 251 1097 251C1005.7 251 914.3 251 823 251C731.7 251 640.3 251 548.8 251C457.3 251 365.7 251 274.2 251C182.7 251 91.3 251 45.7 251L0 251Z" fill="#8a7817"></path><path d="M0 149L45.7 137.5C91.3 126 182.7 103 274.2 102.5C365.7 102 457.3 124 548.8 124.8C640.3 125.7 731.7 105.3 823 105.7C914.3 106 1005.7 127 1097 129.2C1188.3 131.3 1279.7 114.7 1371.2 104.2C1462.7 93.7 1554.3 89.3 1645.8 96.5C1737.3 103.7 1828.7 122.3 1874.3 131.7L1920 141L1920 251L1874.3 251C1828.7 251 1737.3 251 1645.8 251C1554.3 251 1462.7 251 1371.2 251C1279.7 251 1188.3 251 1097 251C1005.7 251 914.3 251 823 251C731.7 251 640.3 251 548.8 251C457.3 251 365.7 251 274.2 251C182.7 251 91.3 251 45.7 251L0 251Z" fill="#9c8a25"></path><path d="M0 173L45.7 164C91.3 155 182.7 137 274.2 129.8C365.7 122.7 457.3 126.3 548.8 131.2C640.3 136 731.7 142 823 143C914.3 144 1005.7 140 1097 138.5C1188.3 137 1279.7 138 1371.2 135C1462.7 132 1554.3 125 1645.8 121.2C1737.3 117.3 1828.7 116.7 1874.3 116.3L1920 116L1920 251L1874.3 251C1828.7 251 1737.3 251 1645.8 251C1554.3 251 1462.7 251 1371.2 251C1279.7 251 1188.3 251 1097 251C1005.7 251 914.3 251 823 251C731.7 251 640.3 251 548.8 251C457.3 251 365.7 251 274.2 251C182.7 251 91.3 251 45.7 251L0 251Z" fill="#af9c33"></path><path d="M0 167L45.7 172.5C91.3 178 182.7 189 274.2 186.5C365.7 184 457.3 168 548.8 160C640.3 152 731.7 152 823 157C914.3 162 1005.7 172 1097 173.3C1188.3 174.7 1279.7 167.3 1371.2 166.5C1462.7 165.7 1554.3 171.3 1645.8 174.2C1737.3 177 1828.7 177 1874.3 177L1920 177L1920 251L1874.3 251C1828.7 251 1737.3 251 1645.8 251C1554.3 251 1462.7 251 1371.2 251C1279.7 251 1188.3 251 1097 251C1005.7 251 914.3 251 823 251C731.7 251 640.3 251 548.8 251C457.3 251 365.7 251 274.2 251C182.7 251 91.3 251 45.7 251L0 251Z" fill="#c2af41"></path><path d="M0 214L45.7 213.7C91.3 213.3 182.7 212.7 274.2 209C365.7 205.3 457.3 198.7 548.8 201.3C640.3 204 731.7 216 823 221C914.3 226 1005.7 224 1097 220.7C1188.3 217.3 1279.7 212.7 1371.2 210.3C1462.7 208 1554.3 208 1645.8 206.3C1737.3 204.7 1828.7 201.3 1874.3 199.7L1920 198L1920 251L1874.3 251C1828.7 251 1737.3 251 1645.8 251C1554.3 251 1462.7 251 1371.2 251C1279.7 251 1188.3 251 1097 251C1005.7 251 914.3 251 823 251C731.7 251 640.3 251 548.8 251C457.3 251 365.7 251 274.2 251C182.7 251 91.3 251 45.7 251L0 251Z" fill="#d6c24f"></path></svg>