<svg id="visual" viewBox="0 0 1920 639" width="1920" height="639" xmlns="http://www.w3.org/2000/svg" xmlns:xlink="http://www.w3.org/1999/xlink" version="1.1"><path d="M0 193L29.2 201.5C58.3 210 116.7 227 174.8 231.2C233 235.3 291 226.7 349.2 202.2C407.3 177.7 465.7 137.3 523.8 120.3C582 103.3 640 109.7 698.2 120.3C756.3 131 814.7 146 872.8 153.5C931 161 989 161 1047.2 150.3C1105.3 139.7 1163.7 118.3 1221.8 121.5C1280 124.7 1338 152.3 1396.2 171.5C1454.3 190.7 1512.7 201.3 1570.8 197C1629 192.7 1687 173.3 1745.2 161.7C1803.3 150 1861.7 146 1890.8 144L1920 142L1920 0L1890.8 0C1861.7 0 1803.3 0 1745.2 0C1687 0 1629 0 1570.8 0C1512.7 0 1454.3 0 1396.2 0C1338 0 1280 0 1221.8 0C1163.7 0 1105.3 0 1047.2 0C989 0 931 0 872.8 0C814.7 0 756.3 0 698.2 0C640 0 582 0 523.8 0C465.7 0 407.3 0 349.2 0C291 0 233 0 174.8 0C116.7 0 58.3 0 29.2 0L0 0Z" fill="#a9a3ff"></path><path d="M0 384L29.2 377.7C58.3 371.3 116.7 358.7 174.8 351.3C233 344 291 342 349.2 337.8C407.3 333.7 465.7 327.3 523.8 329.3C582 331.3 640 341.7 698.2 344.8C756.3 348 814.7 344 872.8 346.2C931 348.3 989 356.7 1047.2 354.5C1105.3 352.3 1163.7 339.7 1221.8 334.3C1280 329 1338 331 1396.2 342.7C1454.3 354.3 1512.7 375.7 1570.8 378.8C1629 382 1687 367 1745.2 351C1803.3 335 1861.7 318 1890.8 309.5L1920 301L1920 140L1890.8 142C1861.7 144 1803.3 148 1745.2 159.7C1687 171.3 1629 190.7 1570.8 195C1512.7 199.3 1454.3 188.7 1396.2 169.5C1338 150.3 1280 122.7 1221.8 119.5C1163.7 116.3 1105.3 137.7 1047.2 148.3C989 159 931 159 872.8 151.5C814.7 144 756.3 129 698.2 118.3C640 107.7 582 101.3 523.8 118.3C465.7 135.3 407.3 175.7 349.2 200.2C291 224.7 233 233.3 174.8 229.2C116.7 225 58.3 208 29.2 199.5L0 191Z" fill="#7b6ffa"></path><path d="M0 499L29.2 488.5C58.3 478 116.7 457 174.8 439C233 421 291 406 349.2 404.8C407.3 403.7 465.7 416.3 523.8 429C582 441.7 640 454.3 698.2 457.5C756.3 460.7 814.7 454.3 872.8 444.8C931 435.3 989 422.7 1047.2 419.5C1105.3 416.3 1163.7 422.7 1221.8 430.2C1280 437.7 1338 446.3 1396.2 453.8C1454.3 461.3 1512.7 467.7 1570.8 461.2C1629 454.7 1687 435.3 1745.2 425.7C1803.3 416 1861.7 416 1890.8 416L1920 416L1920 299L1890.8 307.5C1861.7 316 1803.3 333 1745.2 349C1687 365 1629 380 1570.8 376.8C1512.7 373.7 1454.3 352.3 1396.2 340.7C1338 329 1280 327 1221.8 332.3C1163.7 337.7 1105.3 350.3 1047.2 352.5C989 354.7 931 346.3 872.8 344.2C814.7 342 756.3 346 698.2 342.8C640 339.7 582 329.3 523.8 327.3C465.7 325.3 407.3 331.7 349.2 335.8C291 340 233 342 174.8 349.3C116.7 356.7 58.3 369.3 29.2 375.7L0 382Z" fill="#6456e9"></path><path d="M0 595L29.2 586.5C58.3 578 116.7 561 174.8 557.8C233 554.7 291 565.3 349.2 563.2C407.3 561 465.7 546 523.8 548.2C582 550.3 640 569.7 698.2 580.3C756.3 591 814.7 593 872.8 584.5C931 576 989 557 1047.2 547.5C1105.3 538 1163.7 538 1221.8 538C1280 538 1338 538 1396.2 547.5C1454.3 557 1512.7 576 1570.8 583.3C1629 590.7 1687 586.3 1745.2 579C1803.3 571.7 1861.7 561.3 1890.8 556.2L1920 551L1920 414L1890.8 414C1861.7 414 1803.3 414 1745.2 423.7C1687 433.3 1629 452.7 1570.8 459.2C1512.7 465.7 1454.3 459.3 1396.2 451.8C1338 444.3 1280 435.7 1221.8 428.2C1163.7 420.7 1105.3 414.3 1047.2 417.5C989 420.7 931 433.3 872.8 442.8C814.7 452.3 756.3 458.7 698.2 455.5C640 452.3 582 439.7 523.8 427C465.7 414.3 407.3 401.7 349.2 402.8C291 404 233 419 174.8 437C116.7 455 58.3 476 29.2 486.5L0 497Z" fill="#7b6ffa"></path><path d="M0 640L29.2 640C58.3 640 116.7 640 174.8 640C233 640 291 640 349.2 640C407.3 640 465.7 640 523.8 640C582 640 640 640 698.2 640C756.3 640 814.7 640 872.8 640C931 640 989 640 1047.2 640C1105.3 640 1163.7 640 1221.8 640C1280 640 1338 640 1396.2 640C1454.3 640 1512.7 640 1570.8 640C1629 640 1687 640 1745.2 640C1803.3 640 1861.7 640 1890.8 640L1920 640L1920 549L1890.8 554.2C1861.7 559.3 1803.3 569.7 1745.2 577C1687 584.3 1629 588.7 1570.8 581.3C1512.7 574 1454.3 555 1396.2 545.5C1338 536 1280 536 1221.8 536C1163.7 536 1105.3 536 1047.2 545.5C989 555 931 574 872.8 582.5C814.7 591 756.3 589 698.2 578.3C640 567.7 582 548.3 523.8 546.2C465.7 544 407.3 559 349.2 561.2C291 563.3 233 552.7 174.8 555.8C116.7 559 58.3 576 29.2 584.5L0 593Z" fill="#a9a3ff"></path></svg>