<svg id="visual" viewBox="0 0 1920 200" width="1920" height="200" xmlns="http://www.w3.org/2000/svg" xmlns:xlink="http://www.w3.org/1999/xlink" version="1.1"><rect x="0" y="0" width="1920" height="200" fill="#8378FF"></rect><path d="M0 32L45.7 36.5C91.3 41 182.7 50 274.2 54.3C365.7 58.7 457.3 58.3 548.8 55.5C640.3 52.7 731.7 47.3 823 48.5C914.3 49.7 1005.7 57.3 1097 56.8C1188.3 56.3 1279.7 47.7 1371.2 47.8C1462.7 48 1554.3 57 1645.8 60.7C1737.3 64.3 1828.7 62.7 1874.3 61.8L1920 61L1920 0L1874.3 0C1828.7 0 1737.3 0 1645.8 0C1554.3 0 1462.7 0 1371.2 0C1279.7 0 1188.3 0 1097 0C1005.7 0 914.3 0 823 0C731.7 0 640.3 0 548.8 0C457.3 0 365.7 0 274.2 0C182.7 0 91.3 0 45.7 0L0 0Z" fill="#D6C24F" stroke-linecap="round" stroke-linejoin="miter"></path></svg>